<svg width="134" height="44" viewBox="0 0 134 44" fill="none" xmlns="http://www.w3.org/2000/svg">
<path d="M38.303 20.7287C38.0366 20.7287 37.7762 20.8077 37.5547 20.9557C37.3332 21.1037 37.1605 21.3141 37.0586 21.5602C36.9566 21.8063 36.93 22.0772 36.9819 22.3384C37.0339 22.5997 37.1622 22.8397 37.3506 23.0281C37.5389 23.2165 37.7789 23.3447 38.0402 23.3967C38.3015 23.4487 38.5723 23.422 38.8184 23.3201C39.0646 23.2181 39.2749 23.0455 39.4229 22.824C39.5709 22.6025 39.6499 22.3421 39.6499 22.0757V22.0739C39.6495 21.717 39.5074 21.3748 39.2549 21.1225C39.0023 20.8703 38.6599 20.7287 38.303 20.7287Z" fill="white"/>
<path d="M5.48072 20.7287C5.21433 20.7287 4.95391 20.8077 4.73241 20.9557C4.51091 21.1037 4.33827 21.3141 4.23632 21.5602C4.13437 21.8063 4.1077 22.0772 4.15967 22.3384C4.21164 22.5997 4.33993 22.8397 4.5283 23.0281C4.71667 23.2165 4.95667 23.3447 5.21795 23.3967C5.47923 23.4487 5.75005 23.422 5.99617 23.3201C6.24229 23.2181 6.45266 23.0455 6.60066 22.824C6.74866 22.6025 6.82766 22.3421 6.82766 22.0757V22.0739C6.82766 21.7171 6.68594 21.375 6.43367 21.1227C6.1814 20.8705 5.83925 20.7287 5.48249 20.7287H5.48072Z" fill="white"/>
<path d="M23.9836 19.9992C21.936 19.4948 20.6291 19.0577 20.0628 18.6878C19.8018 18.5356 19.5858 18.317 19.4368 18.0541C19.2879 17.7912 19.2113 17.4934 19.215 17.1913C19.2056 16.9026 19.2634 16.6157 19.3838 16.3531C19.5042 16.0905 19.6839 15.8595 19.9088 15.6782C20.4554 15.2728 21.1267 15.0716 21.8062 15.1095C23.8017 15.1095 25.7356 15.8197 27.6078 17.2402L30.3332 16.6564L30.0482 13.7232C28.9366 12.7923 27.6598 12.0788 26.2843 11.6202C24.8951 11.136 23.4351 10.8858 21.9638 10.8798C19.7614 10.8798 17.9257 11.4346 16.4568 12.5442C14.9837 13.6564 14.2474 15.2356 14.2479 17.2818C14.2484 19.3281 14.8304 20.83 15.9938 21.7874C17.1539 22.7466 18.9895 23.5237 21.5008 24.1189C23.0859 24.511 24.1463 24.8966 24.6819 25.2757C24.9347 25.4445 25.1407 25.6745 25.2806 25.9444C25.4206 26.2143 25.4899 26.5152 25.4821 26.8191C25.4922 27.1183 25.4286 27.4155 25.297 27.6845C25.1654 27.9535 24.9698 28.186 24.7273 28.3617C24.1137 28.7741 23.3821 28.9745 22.644 28.9324C20.67 28.9324 18.5233 27.917 16.2039 25.8862L16.2187 28.8194L13.3496 29.4214C16.079 31.9355 19.1464 33.1926 22.5519 33.1926C24.9161 33.1926 26.8243 32.5907 28.2766 31.3869C28.9781 30.824 29.5397 30.1061 29.9171 29.2896C30.2946 28.4731 30.4778 27.5803 30.4522 26.6811C30.4522 24.7458 29.8861 23.2747 28.754 22.2678C27.6218 21.2609 26.0317 20.5047 23.9836 19.9992Z" fill="white"/>
<path d="M42.4624 18.6914L25.3109 1.53856C24.412 0.645139 23.1962 0.143677 21.9288 0.143677C20.6615 0.143677 19.4456 0.645139 18.5467 1.53856L1.39519 18.6914C0.501588 19.5901 0 20.806 0 22.0734C0 23.3408 0.501588 24.5568 1.39519 25.4555L18.5467 42.6043C19.4453 43.4982 20.6613 44 21.9288 44C23.1963 44 24.4123 43.4982 25.3109 42.6043L42.4597 25.4555C43.3535 24.5571 43.8555 23.3414 43.856 22.074C43.8566 20.8066 43.3555 19.5906 42.4624 18.6914ZM5.48114 20.7288C5.74753 20.7285 6.00804 20.8072 6.22971 20.9549C6.45137 21.1027 6.62425 21.3129 6.72647 21.5589C6.8287 21.8049 6.85567 22.0757 6.804 22.337C6.75232 22.5983 6.6243 22.8385 6.43614 23.0271C6.24798 23.2156 6.00813 23.3442 5.74691 23.3965C5.48568 23.4487 5.21483 23.4224 4.9686 23.3207C4.72236 23.219 4.51181 23.0466 4.36355 22.8253C4.2153 22.6039 4.13601 22.3436 4.13571 22.0772V22.0739C4.13578 21.7172 4.27756 21.375 4.52987 21.1228C4.78218 20.8705 5.12435 20.7288 5.48114 20.7288ZM16.2024 25.8863C18.5225 27.9167 20.6692 28.9321 22.6425 28.9324C23.3806 28.9746 24.1122 28.7742 24.7258 28.3617C24.9683 28.186 25.1639 27.9535 25.2955 27.6845C25.4271 27.4155 25.4907 27.1184 25.4806 26.8191C25.4884 26.5152 25.419 26.2143 25.2791 25.9444C25.1391 25.6745 24.9331 25.4445 24.6802 25.2757C24.1435 24.8968 23.0832 24.5112 21.4993 24.1189C18.9882 23.5221 17.1525 22.7449 15.9923 21.7875C14.8286 20.8291 14.2466 19.3273 14.2464 17.2819C14.2463 15.2365 14.9826 13.6573 16.4553 12.5443C17.9253 11.4347 19.7609 10.8798 21.9624 10.8798C23.4343 10.8855 24.8951 11.1357 26.2851 11.6203C27.661 12.0776 28.9384 12.7898 30.0508 13.7197L30.3357 16.6529L27.6103 17.237C25.7403 15.817 23.8064 15.1068 21.8088 15.1063C21.1293 15.0684 20.458 15.2696 19.9113 15.6749C19.6865 15.8563 19.5068 16.0873 19.3864 16.3499C19.266 16.6124 19.2082 16.8994 19.2175 17.1881C19.214 17.4902 19.2906 17.7878 19.4395 18.0507C19.5885 18.3136 19.8044 18.5323 20.0654 18.6845C20.6308 19.0544 21.9377 19.4915 23.9862 19.9959C26.0346 20.5003 27.624 21.2561 28.7543 22.2633C29.8859 23.2721 30.452 24.7432 30.4525 26.6766C30.4781 27.5758 30.2949 28.4686 29.9175 29.2851C29.54 30.1016 28.9784 30.8195 28.2769 31.3824C26.825 32.5881 24.9167 33.19 22.5522 33.1881C19.1453 33.1881 16.0779 31.931 13.3499 29.4169L16.219 28.8149L16.2024 25.8863ZM38.3039 23.4196C38.0375 23.4196 37.777 23.3406 37.5555 23.1926C37.334 23.0446 37.1614 22.8343 37.0595 22.5881C36.9575 22.342 36.9308 22.0712 36.9828 21.8099C37.0348 21.5486 37.1631 21.3086 37.3514 21.1203C37.5398 20.9319 37.7798 20.8036 38.0411 20.7516C38.3024 20.6997 38.5732 20.7263 38.8193 20.8283C39.0654 20.9302 39.2758 21.1029 39.4238 21.3244C39.5718 21.5459 39.6508 21.8063 39.6508 22.0727C39.6508 22.2496 39.616 22.4247 39.5483 22.5882C39.4807 22.7516 39.3814 22.9001 39.2564 23.0252C39.1313 23.1503 38.9828 23.2495 38.8193 23.3172C38.6559 23.3848 38.4808 23.4197 38.3039 23.4196Z" fill="#E62B51"/>
<path d="M64.6688 17.8256C63.5912 16.8516 62.567 16.5952 61.7981 16.5952C61.3109 16.5952 60.6189 16.6708 60.1818 17.0309C60.0002 17.1809 59.8533 17.3687 59.7515 17.5812C59.6498 17.7937 59.5955 18.0258 59.5925 18.2614C59.5903 18.4869 59.6428 18.7096 59.7454 18.9104C59.848 19.1113 59.9978 19.2843 60.1818 19.4146C60.541 19.7223 61.0022 19.9273 61.8481 20.3124L62.8477 20.7739C63.7191 21.1332 64.4923 21.6952 65.103 22.4131C65.7112 23.1645 66.0215 24.1135 65.9746 25.079C65.9942 26.7077 65.3781 28.28 64.2572 29.4618C62.8732 30.8203 61.1049 31.128 59.3617 31.128C58.1773 31.1801 57.0004 30.9146 55.9532 30.3588C55.1024 29.875 54.3327 29.261 53.6719 28.539L55.8762 25.7196C56.2773 26.2485 56.763 26.7076 57.3137 27.0781C57.9167 27.4439 58.6078 27.6388 59.3131 27.642C59.9835 27.6456 60.6413 27.4588 61.2098 27.1033C61.4423 26.9105 61.6279 26.6671 61.7523 26.3918C61.8767 26.1166 61.9368 25.8165 61.928 25.5145C61.9329 25.295 61.8921 25.0769 61.8083 24.8739C61.7245 24.671 61.5994 24.4876 61.441 24.3356C61.0435 23.9919 60.5817 23.7306 60.0825 23.5666L59.0828 23.1566C58.1909 22.8098 57.3732 22.2963 56.6734 21.6435C56.2996 21.2619 56.0069 20.8086 55.8131 20.3108C55.6192 19.8131 55.5283 19.2812 55.5456 18.7473C55.5304 18.0322 55.6588 17.3212 55.923 16.6564C56.1872 15.9917 56.582 15.3866 57.084 14.877C58.468 13.5185 60.2363 13.2607 61.6972 13.2607C63.4947 13.2198 65.2481 13.8194 66.6442 14.9524L64.6688 17.8256Z" fill="#2E054E"/>
<path d="M71.0009 36.6123H67.3086L69.4361 19.3122H73.1258L72.9208 20.645C73.3174 20.1619 73.805 19.7612 74.356 19.4658C75.0849 19.0926 75.8955 18.9074 76.7142 18.9271C78.4825 18.9271 79.5591 19.5937 80.174 20.1843C81.0967 21.107 81.6871 22.6961 81.6871 24.4642C81.6871 26.6428 80.8924 28.4626 79.7646 29.5904C79.2634 30.1038 78.6599 30.5061 77.9931 30.7711C77.3263 31.0362 76.6112 31.158 75.8943 31.1287C75.0385 31.1688 74.1856 31.0017 73.4083 30.6415C72.8177 30.3276 72.3086 29.88 71.9216 29.3344L71.0009 36.6123ZM73.1283 22.9768C72.8233 23.2765 72.5837 23.6363 72.4249 24.0335C72.2661 24.4306 72.1914 24.8563 72.2056 25.2838C72.1892 25.6173 72.2388 25.9508 72.3513 26.2651C72.4639 26.5795 72.6373 26.8686 72.8616 27.116C73.0859 27.3634 73.3567 27.5641 73.6586 27.7068C73.9605 27.8495 74.2875 27.9313 74.621 27.9476C74.6874 27.9509 74.7537 27.9517 74.82 27.9494C75.579 27.9513 76.3109 27.6677 76.8703 27.1548C77.5119 26.4944 77.8785 25.6148 77.8957 24.6942C77.9081 24.3664 77.8558 24.0394 77.7418 23.7318C77.6278 23.4243 77.4543 23.1422 77.2312 22.9017C77.0081 22.6612 76.7398 22.4671 76.4417 22.3303C76.1436 22.1935 75.8214 22.1169 75.4936 22.1047C75.423 22.1019 75.3521 22.1024 75.2815 22.1047C74.8816 22.0932 74.4836 22.1647 74.1127 22.3146C73.7417 22.4646 73.4059 22.6898 73.1263 22.976L73.1283 22.9768Z" fill="#2E054E"/>
<path d="M88.634 19.6254L87.2232 31.0569H83.5332L84.9429 19.6254H88.634ZM87.2754 13.2986C87.7012 13.2986 88.1175 13.4248 88.4715 13.6614C88.8256 13.898 89.1015 14.2342 89.2645 14.6276C89.4274 15.021 89.47 15.4539 89.387 15.8715C89.3039 16.2891 89.0989 16.6727 88.7978 16.9738C88.4967 17.2749 88.1131 17.48 87.6954 17.563C87.2778 17.6461 86.8449 17.6035 86.4515 17.4405C86.0581 17.2776 85.7219 17.0016 85.4853 16.6476C85.2488 16.2935 85.1225 15.8773 85.1225 15.4515C85.1173 14.8857 85.3371 14.3411 85.7334 13.9373C86.1298 13.5336 86.6703 13.3038 87.2361 13.2986H87.2754Z" fill="#2E054E"/>
<path d="M95.476 19.6254L95.2964 20.8826C95.7041 20.4486 96.1804 20.0845 96.7061 19.805C97.3995 19.4399 98.1795 19.2715 98.9617 19.318C99.9099 19.318 101.063 19.4461 101.935 20.292C102.833 21.1633 102.909 22.3168 102.909 23.0088C102.895 23.7381 102.835 24.4657 102.729 25.1874L102.038 31.0571H98.3471L98.9622 26.1102C99.0555 25.4992 99.1069 24.8826 99.116 24.2647C99.1451 23.7613 98.9799 23.2659 98.6545 22.8807C98.2835 22.5459 97.7955 22.371 97.2963 22.3937C96.9911 22.376 96.6857 22.4215 96.3989 22.5273C96.1122 22.6331 95.8505 22.7971 95.6301 23.0088C94.9638 23.7008 94.8099 24.8031 94.7323 25.4182L94.0657 31.0571H90.376L91.7857 19.6257L95.476 19.6254Z" fill="#2E054E"/>
<path d="M110.009 19.6254L109.829 20.8826C110.237 20.4486 110.713 20.0845 111.239 19.805C111.932 19.4401 112.712 19.2717 113.494 19.318C114.443 19.318 115.596 19.4461 116.468 20.292C117.366 21.1633 117.442 22.3168 117.442 23.0088C117.428 23.7381 117.368 24.4657 117.262 25.1874L116.57 31.0571H112.879L113.494 26.1102C113.588 25.4993 113.639 24.8826 113.648 24.2647C113.677 23.7613 113.512 23.2659 113.187 22.8807C112.816 22.546 112.328 22.371 111.828 22.3937C111.523 22.376 111.218 22.4215 110.931 22.5273C110.645 22.6332 110.383 22.7971 110.163 23.0088C109.496 23.7008 109.342 24.8031 109.264 25.4182L108.598 31.0571H104.908L106.318 19.6257L110.009 19.6254Z" fill="#2E054E"/>
<path d="M123.49 29.2822L119.056 19.312H123.258L125.795 25.5662L129.64 19.312H133.973L122.928 36.612H118.775L123.49 29.2822Z" fill="#2E054E"/>
</svg>
